<svg width="29" height="29" viewBox="0 0 29 29" fill="none" xmlns="http://www.w3.org/2000/svg">
<g clip-path="url(#clip0)">
<path d="M14.5002 0.000976562C6.49194 0.000976562 0 6.49222 0 14.5012C0 22.5087 6.49194 29.0006 14.5002 29.0006C22.5081 29.0006 29 22.5087 29 14.5012C29 6.49222 22.5081 0.000976562 14.5002 0.000976562Z" fill="#4D6299"/>
<path d="M18.6827 15.7643C18.5286 15.3905 18.2987 15.0494 17.9935 14.7411C17.688 14.4329 17.3128 14.1589 16.8676 13.9191C17.3299 13.531 17.6852 13.1329 17.9335 12.7247C18.1818 12.3167 18.3059 11.8272 18.3059 11.2564C18.3059 10.8227 18.2203 10.4173 18.049 10.0406C17.8778 9.66381 17.6238 9.33287 17.287 9.04741C16.9502 8.76206 16.5535 8.54375 16.097 8.39243C15.6402 8.24128 15.1351 8.16553 14.5815 8.16553C13.9479 8.16553 13.3743 8.25542 12.8606 8.43521C12.3469 8.615 11.9173 8.85342 11.572 9.1501C11.2266 9.44697 10.9641 9.75949 10.7843 10.0876C10.6045 10.4159 10.5146 10.7284 10.5146 11.0252C10.5146 11.3334 10.6101 11.5804 10.8014 11.7658C10.9926 11.9513 11.2023 12.044 11.4307 12.044C11.6247 12.044 11.796 12.0098 11.9444 11.9413C12.0928 11.8728 12.1955 11.7786 12.2526 11.6587C12.3496 11.4361 12.4566 11.1993 12.5737 10.9481C12.6906 10.697 12.8148 10.4915 12.9461 10.3317C13.0774 10.1719 13.2557 10.0435 13.4812 9.94636C13.7066 9.84939 13.9935 9.80082 14.3417 9.80082C14.8554 9.80082 15.2635 9.95921 15.5661 10.276C15.8685 10.5928 16.0199 10.971 16.0199 11.4104C16.0199 11.987 15.83 12.4293 15.4505 12.7375C15.0708 13.0457 14.6185 13.1999 14.0934 13.1999H13.7424C13.337 13.1999 13.0318 13.2842 12.8263 13.4524C12.6208 13.6209 12.5181 13.842 12.5181 14.116C12.5181 14.3957 12.6037 14.614 12.7749 14.771C12.9462 14.928 13.1887 15.0064 13.5027 15.0064C13.5712 15.0064 13.7253 14.9951 13.965 14.9722C14.2048 14.9494 14.3816 14.9379 14.4959 14.9379C15.1466 14.9379 15.6545 15.1278 16.0199 15.5073C16.3851 15.8869 16.5678 16.4105 16.5678 17.0784C16.5678 17.5294 16.4608 17.926 16.2468 18.2685C16.0327 18.6109 15.7615 18.8693 15.4334 19.0433C15.1051 19.2175 14.7641 19.3045 14.4102 19.3045C13.7938 19.3045 13.3157 19.1118 12.9761 18.7265C12.6364 18.3412 12.3182 17.7519 12.0215 16.9585C11.9757 16.8273 11.8787 16.7145 11.7304 16.6203C11.5819 16.5261 11.4278 16.479 11.2681 16.479C10.9483 16.479 10.6816 16.5804 10.4675 16.783C10.2535 16.9857 10.1465 17.2526 10.1465 17.5835C10.1465 17.8404 10.2364 18.1657 10.4162 18.5595C10.596 18.9534 10.8614 19.3344 11.2124 19.7026C11.5635 20.0707 12.01 20.3776 12.5524 20.623C13.0945 20.8683 13.7082 20.9911 14.3932 20.9911C15.0666 20.9911 15.6817 20.8841 16.2382 20.6701C16.7947 20.456 17.2756 20.1593 17.6809 19.7797C18.0862 19.4002 18.3929 18.9677 18.6013 18.4826C18.8096 17.9975 18.9139 17.4951 18.9139 16.9757C18.9139 16.542 18.8368 16.1382 18.6827 15.7643Z" fill="white"/>
</g>
<defs>
<clipPath id="clip0">
<rect width="29" height="29" fill="white"/>
</clipPath>
</defs>
</svg>
