<svg width="29" height="29" viewBox="0 0 29 29" fill="none" xmlns="http://www.w3.org/2000/svg">
<g clip-path="url(#clip0)">
<path d="M14.5002 0.000976562C6.49194 0.000976562 0 6.49222 0 14.5012C0 22.5087 6.49194 29.0006 14.5002 29.0006C22.5081 29.0006 29 22.5087 29 14.5012C29 6.49222 22.5081 0.000976562 14.5002 0.000976562Z" fill="#4D6299"/>
<path d="M18.9948 16.3594C18.7293 16.2396 18.3768 16.1796 17.9374 16.1796H17.5692V9.55274C17.5692 8.55957 17.1353 8.06299 16.2678 8.06299C15.9994 8.06299 15.7697 8.15288 15.5785 8.33267C15.3872 8.51246 15.1432 8.80225 14.8465 9.20169L10.3087 15.272C10.1831 15.4376 10.0775 15.5775 9.9919 15.6916C9.90627 15.8059 9.82345 15.9242 9.74361 16.0469C9.66359 16.1697 9.60368 16.2867 9.56382 16.398C9.52378 16.5092 9.50391 16.6192 9.50391 16.7276C9.50391 17.1501 9.63939 17.484 9.9106 17.7294C10.1816 17.9748 10.5883 18.0975 11.1307 18.0975H15.4287V19.69C15.4287 20.1181 15.5272 20.4422 15.7241 20.6618C15.921 20.8815 16.1793 20.9915 16.499 20.9915C16.8243 20.9915 17.084 20.8844 17.2781 20.6704C17.4721 20.4564 17.5692 20.1297 17.5692 19.6901V18.0976H18.0915C18.5252 18.0976 18.8506 18.022 19.0675 17.8707C19.2844 17.7195 19.3928 17.4783 19.3928 17.1472C19.3929 16.7419 19.2602 16.4793 18.9948 16.3594ZM15.4288 16.1796H11.7472L15.4288 11.2052V16.1796Z" fill="white"/>
</g>
<defs>
<clipPath id="clip0">
<rect width="29" height="29" fill="white"/>
</clipPath>
</defs>
</svg>
