<svg width="29" height="29" viewBox="0 0 29 29" fill="none" xmlns="http://www.w3.org/2000/svg">
<g clip-path="url(#clip0)">
<path d="M14.5002 0.000976562C6.49194 0.000976562 0 6.49222 0 14.5012C0 22.5087 6.49194 29.0006 14.5002 29.0006C22.5081 29.0006 29 22.5087 29 14.5012C29 6.49222 22.5081 0.000976562 14.5002 0.000976562Z" fill="#4D6299"/>
<path d="M16.2937 8.49973C16.111 8.26576 15.8684 8.14868 15.5659 8.14868C15.2976 8.14868 15.1149 8.20006 15.018 8.30281C14.9208 8.40557 14.7125 8.67952 14.393 9.12478C14.0733 9.56999 13.7065 9.97241 13.2928 10.332C12.8788 10.6916 12.3266 11.0341 11.636 11.3594C11.1737 11.5764 10.8511 11.7532 10.6685 11.8902C10.4858 12.0272 10.3945 12.2413 10.3945 12.5324C10.3945 12.7836 10.4872 13.0048 10.6728 13.1959C10.8582 13.3872 11.071 13.4827 11.3107 13.4827C11.8129 13.4827 12.789 12.9263 14.2388 11.8132V19.6045C14.2388 20.0613 14.3444 20.4066 14.5556 20.6405C14.7668 20.8745 15.0464 20.9916 15.3947 20.9916C16.1766 20.9916 16.5676 20.418 16.5676 19.2707V9.46724C16.5677 9.05628 16.4763 8.73387 16.2937 8.49973Z" fill="white"/>
</g>
<defs>
<clipPath id="clip0">
<rect width="29" height="29" fill="white"/>
</clipPath>
</defs>
</svg>
