<svg width="29" height="29" viewBox="0 0 29 29" fill="none" xmlns="http://www.w3.org/2000/svg">
<g clip-path="url(#clip0)">
<path d="M14.5002 0.000976562C6.49194 0.000976562 0 6.49222 0 14.5012C0 22.5087 6.49194 29.0006 14.5002 29.0006C22.5081 29.0006 29 22.5087 29 14.5012C29 6.49222 22.5081 0.000976562 14.5002 0.000976562Z" fill="#4D6299"/>
<path d="M18.6913 19.0309C18.4572 18.8483 18.1176 18.7568 17.6724 18.7568H13.2031C13.3457 18.54 13.4856 18.3544 13.6226 18.2004C13.9422 17.8123 14.5315 17.2671 15.3906 16.565C16.2496 15.8629 16.8618 15.3479 17.2272 15.0196C17.5924 14.6915 17.9507 14.2377 18.3017 13.6583C18.6527 13.079 18.8283 12.4354 18.8283 11.7276C18.8283 11.2768 18.744 10.8414 18.5757 10.4219C18.4073 10.0023 18.1718 9.63282 17.8694 9.31311C17.5668 8.99351 17.2157 8.74241 16.8162 8.55964C16.1998 8.28563 15.4549 8.14868 14.5816 8.14868C13.8566 8.14868 13.2245 8.2557 12.6851 8.46974C12.1458 8.68378 11.7005 8.96498 11.3495 9.31311C10.9984 9.66135 10.7343 10.0494 10.5575 10.4775C10.3805 10.9056 10.2921 11.3166 10.2921 11.7105C10.2921 12.0358 10.3862 12.2927 10.5746 12.481C10.763 12.6694 10.9998 12.7636 11.2852 12.7636C11.6106 12.7636 11.8574 12.6608 12.0258 12.4554C12.1941 12.2499 12.3454 11.956 12.4796 11.5735C12.6137 11.1911 12.7093 10.957 12.7664 10.8714C13.1945 10.2151 13.7824 9.88678 14.5302 9.88678C14.8841 9.88678 15.2109 9.9668 15.5105 10.1265C15.8102 10.2864 16.047 10.5105 16.2211 10.7986C16.3952 11.087 16.4823 11.4138 16.4823 11.779C16.4823 12.1158 16.4009 12.4597 16.2383 12.8106C16.0756 13.1616 15.8387 13.5041 15.5276 13.8381C15.2165 14.172 14.8269 14.5046 14.359 14.8355C14.0963 15.0125 13.6597 15.3821 13.049 15.9443C12.4381 16.5066 11.7532 17.1815 10.9942 17.9692C10.8114 18.1633 10.6431 18.4302 10.489 18.7697C10.3348 19.1094 10.2578 19.3819 10.2578 19.5874C10.2578 19.9071 10.3777 20.1853 10.6174 20.4221C10.8571 20.6591 11.191 20.7774 11.6192 20.7774H17.9207C18.2974 20.7774 18.5785 20.6805 18.7641 20.4864C18.9495 20.2924 19.0424 20.0555 19.0424 19.7757C19.0423 19.4619 18.9252 19.2136 18.6913 19.0309Z" fill="white"/>
</g>
<defs>
<clipPath id="clip0">
<rect width="29" height="29" fill="white"/>
</clipPath>
</defs>
</svg>
