<svg width="29" height="29" viewBox="0 0 29 29" fill="none" xmlns="http://www.w3.org/2000/svg">
<g clip-path="url(#clip0)">
<path d="M14.5002 0.000976562C6.49194 0.000976562 0 6.49222 0 14.5012C0 22.5087 6.49194 29.0006 14.5002 29.0006C22.5081 29.0006 29 22.5087 29 14.5012C29 6.49222 22.5081 0.000976562 14.5002 0.000976562Z" fill="#4D6299"/>
<path d="M18.7341 14.9122C18.5286 14.4157 18.2461 13.9862 17.8865 13.6237C17.5269 13.2613 17.1087 12.9772 16.6322 12.7718C16.1555 12.5663 15.6433 12.4636 15.0953 12.4636C14.4103 12.4636 13.6625 12.6805 12.8521 13.1143L13.3401 10.3402H17.407C17.8294 10.3402 18.149 10.249 18.3659 10.0662C18.5828 9.88363 18.6913 9.64387 18.6913 9.34701C18.6913 8.66783 18.2461 8.32812 17.3556 8.32812H12.8349C12.3439 8.32812 11.9901 8.43941 11.7732 8.66204C11.5563 8.88468 11.4079 9.24145 11.328 9.73231L10.6089 13.8334C10.546 14.193 10.5147 14.3872 10.5147 14.4157C10.5147 14.6725 10.6231 14.9024 10.84 15.1049C11.0569 15.3076 11.3052 15.4088 11.5849 15.4088C11.8418 15.4088 12.1685 15.259 12.5652 14.9594C12.9619 14.6597 13.2658 14.4499 13.4771 14.33C13.6882 14.2102 14.0393 14.1502 14.5302 14.1502C14.9297 14.1502 15.2922 14.2459 15.6176 14.437C15.9429 14.6284 16.2026 14.918 16.3967 15.3061C16.5907 15.6943 16.6878 16.1622 16.6878 16.7102C16.6878 17.2183 16.5979 17.6721 16.4181 18.0715C16.2383 18.4711 15.9828 18.7851 15.6519 19.0133C15.3207 19.2417 14.9355 19.3558 14.496 19.3558C14.0166 19.3558 13.5827 19.2145 13.1946 18.932C12.8064 18.6494 12.4981 18.2542 12.2699 17.7461C12.0358 17.1926 11.6792 16.9156 11.1997 16.9156C10.9199 16.9156 10.6873 17.0156 10.5019 17.2153C10.3163 17.4151 10.2236 17.6263 10.2236 17.8489C10.2236 18.2143 10.3564 18.6409 10.6218 19.1289C10.8872 19.6169 11.338 20.0493 11.9746 20.426C12.611 20.8027 13.44 20.9911 14.4618 20.9911C15.375 20.9911 16.1813 20.7912 16.8806 20.3917C17.5797 19.9923 18.1149 19.4529 18.4859 18.7735C18.8569 18.0943 19.0424 17.3409 19.0424 16.5132C19.0423 15.9426 18.9396 15.4088 18.7341 14.9122Z" fill="white"/>
</g>
<defs>
<clipPath id="clip0">
<rect width="29" height="29" fill="white"/>
</clipPath>
</defs>
</svg>
