<svg width="37" height="36" viewBox="0 0 37 36" fill="none" xmlns="http://www.w3.org/2000/svg">
<g clip-path="url(#clip0)">
<path d="M18.5 35.9997C8.27554 35.9997 0 27.938 0 18C0 8.05161 8.27413 0 18.5 0C28.7247 0 36.9997 8.05051 36.9997 18C36.9997 27.9476 28.7132 35.9997 18.5 35.9997Z" fill="#66A9DF"/>
<path d="M18.5 0V35.9997C28.7132 35.9997 36.9997 27.9476 36.9997 18C36.9997 8.05078 28.7247 0 18.5 0Z" fill="#4D6299"/>
<path d="M18.4999 22.2188C13.117 22.2188 7.98444 24.5083 4.2334 29.4588C11.703 38.2437 25.5292 38.1687 32.898 29.3019C31.0784 27.5408 26.9798 22.2188 18.4999 22.2188Z" fill="#D6F3FE"/>
<path d="M32.8981 29.3019C29.4192 33.4874 24.1994 35.9997 18.5 35.9997V22.2188C26.9802 22.2188 31.0785 27.5414 32.8981 29.3019Z" fill="#BDECFC"/>
<path d="M18.5 19.0547C14.9135 19.0547 11.9961 16.2158 11.9961 12.7266V10.6172C11.9961 7.12793 14.9135 4.28906 18.5 4.28906C22.0862 4.28906 25.0039 7.12793 25.0039 10.6172V12.7266C25.0039 16.2158 22.0862 19.0547 18.5 19.0547Z" fill="#D6F3FE"/>
<path d="M18.5 4.28906V19.0547C22.0865 19.0547 25.0039 16.2161 25.0039 12.7266V10.6172C25.0039 7.12766 22.0865 4.28906 18.5 4.28906Z" fill="#BDECFC"/>
</g>
<defs>
<clipPath id="clip0">
<rect width="37" height="36" fill="white"/>
</clipPath>
</defs>
</svg>
