<svg width="195" height="32" viewBox="0 0 195 32" fill="none" xmlns="http://www.w3.org/2000/svg">
<path d="M11.268 29.432C9.276 29.432 7.344 29.168 5.472 28.64C3.624 28.088 2.136 27.38 1.008 26.516L2.988 22.124C4.068 22.916 5.352 23.552 6.84 24.032C8.328 24.512 9.816 24.752 11.304 24.752C12.96 24.752 14.184 24.512 14.976 24.032C15.768 23.528 16.164 22.868 16.164 22.052C16.164 21.452 15.924 20.96 15.444 20.576C14.988 20.168 14.388 19.844 13.644 19.604C12.924 19.364 11.94 19.1 10.692 18.812C8.772 18.356 7.2 17.9 5.976 17.444C4.752 16.988 3.696 16.256 2.808 15.248C1.944 14.24 1.512 12.896 1.512 11.216C1.512 9.752 1.908 8.432 2.7 7.256C3.492 6.056 4.68 5.108 6.264 4.412C7.872 3.716 9.828 3.368 12.132 3.368C13.74 3.368 15.312 3.56 16.848 3.944C18.384 4.328 19.728 4.88 20.88 5.6L19.08 10.028C16.752 8.708 14.424 8.048 12.096 8.048C10.464 8.048 9.252 8.312 8.46 8.84C7.692 9.368 7.308 10.064 7.308 10.928C7.308 11.792 7.752 12.44 8.64 12.872C9.552 13.28 10.932 13.688 12.78 14.096C14.7 14.552 16.272 15.008 17.496 15.464C18.72 15.92 19.764 16.64 20.628 17.624C21.516 18.608 21.96 19.94 21.96 21.62C21.96 23.06 21.552 24.38 20.736 25.58C19.944 26.756 18.744 27.692 17.136 28.388C15.528 29.084 13.572 29.432 11.268 29.432ZM33.361 9.344C36.361 9.344 38.665 10.064 40.273 11.504C41.881 12.92 42.685 15.068 42.685 17.948V29H37.429V26.588C36.373 28.388 34.405 29.288 31.525 29.288C30.037 29.288 28.741 29.036 27.637 28.532C26.557 28.028 25.729 27.332 25.153 26.444C24.577 25.556 24.289 24.548 24.289 23.42C24.289 21.62 24.961 20.204 26.305 19.172C27.673 18.14 29.773 17.624 32.605 17.624H37.069C37.069 16.4 36.697 15.464 35.953 14.816C35.209 14.144 34.093 13.808 32.605 13.808C31.573 13.808 30.553 13.976 29.545 14.312C28.561 14.624 27.721 15.056 27.025 15.608L25.009 11.684C26.065 10.94 27.325 10.364 28.789 9.956C30.277 9.548 31.801 9.344 33.361 9.344ZM32.929 25.508C33.889 25.508 34.741 25.292 35.485 24.86C36.229 24.404 36.757 23.744 37.069 22.88V20.9H33.217C30.913 20.9 29.761 21.656 29.761 23.168C29.761 23.888 30.037 24.464 30.589 24.896C31.165 25.304 31.945 25.508 32.929 25.508ZM60.2598 28.064C59.7078 28.472 59.0238 28.784 58.2078 29C57.4158 29.192 56.5758 29.288 55.6878 29.288C53.3838 29.288 51.5958 28.7 50.3238 27.524C49.0758 26.348 48.4518 24.62 48.4518 22.34V14.384H45.4638V10.064H48.4518V5.348H54.0678V10.064H58.8918V14.384H54.0678V22.268C54.0678 23.084 54.2718 23.72 54.6798 24.176C55.1118 24.608 55.7118 24.824 56.4798 24.824C57.3678 24.824 58.1238 24.584 58.7478 24.104L60.2598 28.064ZM100.514 29.288C98.9063 29.288 97.3343 29.096 95.7983 28.712C94.2623 28.304 93.0383 27.8 92.1263 27.2L93.9983 23.168C94.8623 23.72 95.9063 24.176 97.1303 24.536C98.3543 24.872 99.5543 25.04 100.73 25.04C103.106 25.04 104.294 24.452 104.294 23.276C104.294 22.724 103.97 22.328 103.322 22.088C102.674 21.848 101.678 21.644 100.334 21.476C98.7503 21.236 97.4423 20.96 96.4103 20.648C95.3783 20.336 94.4783 19.784 93.7103 18.992C92.9663 18.2 92.5942 17.072 92.5942 15.608C92.5942 14.384 92.9423 13.304 93.6383 12.368C94.3583 11.408 95.3903 10.664 96.7343 10.136C98.1023 9.608 99.7103 9.344 101.558 9.344C102.926 9.344 104.282 9.5 105.626 9.812C106.994 10.1 108.122 10.508 109.01 11.036L107.138 15.032C105.434 14.072 103.574 13.592 101.558 13.592C100.358 13.592 99.4583 13.76 98.8583 14.096C98.2583 14.432 97.9583 14.864 97.9583 15.392C97.9583 15.992 98.2823 16.412 98.9303 16.652C99.5783 16.892 100.61 17.12 102.026 17.336C103.61 17.6 104.906 17.888 105.914 18.2C106.922 18.488 107.798 19.028 108.542 19.82C109.286 20.612 109.658 21.716 109.658 23.132C109.658 24.332 109.298 25.4 108.578 26.336C107.858 27.272 106.802 28.004 105.41 28.532C104.042 29.036 102.41 29.288 100.514 29.288ZM124.895 9.344C127.295 9.344 129.227 10.064 130.691 11.504C132.179 12.944 132.923 15.08 132.923 17.912V29H127.307V18.776C127.307 17.24 126.971 16.1 126.299 15.356C125.627 14.588 124.655 14.204 123.383 14.204C121.967 14.204 120.839 14.648 119.999 15.536C119.159 16.4 118.739 17.696 118.739 19.424V29H113.123V2.288H118.739V11.648C119.483 10.904 120.383 10.34 121.439 9.956C122.495 9.548 123.647 9.344 124.895 9.344ZM146.33 21.404L143.63 24.068V29H138.014V2.288H143.63V17.408L151.838 9.632H158.534L150.47 17.84L159.254 29H152.45L146.33 21.404ZM161.639 9.632H167.255V29H161.639V9.632ZM164.447 6.932C163.415 6.932 162.575 6.632 161.927 6.032C161.279 5.432 160.955 4.688 160.955 3.8C160.955 2.912 161.279 2.168 161.927 1.568C162.575 0.967998 163.415 0.667998 164.447 0.667998C165.479 0.667998 166.319 0.955998 166.967 1.532C167.615 2.108 167.939 2.828 167.939 3.692C167.939 4.628 167.615 5.408 166.967 6.032C166.319 6.632 165.479 6.932 164.447 6.932ZM184.239 9.344C186.639 9.344 188.571 10.064 190.035 11.504C191.523 12.944 192.267 15.08 192.267 17.912V29H186.651V18.776C186.651 17.24 186.315 16.1 185.643 15.356C184.971 14.588 183.999 14.204 182.727 14.204C181.311 14.204 180.183 14.648 179.343 15.536C178.503 16.4 178.083 17.696 178.083 19.424V29H172.467V9.632H177.831V11.9C178.575 11.084 179.499 10.46 180.603 10.028C181.707 9.572 182.919 9.344 184.239 9.344Z" fill="#404040"/>
<path d="M67.7571 14.7127H64.794V20.8484H67.7571V14.7127Z" fill="#404040"/>
<path d="M62.7975 8.81845L66.9754 14.7733L65.1291 15.7714L62.7975 8.81845Z" fill="#404040"/>
<path d="M63.5082 8.43426C63.7079 8.83031 63.5517 9.32336 63.1592 9.53552C62.7667 9.74769 62.2866 9.59863 62.0869 9.20258C61.8872 8.80653 62.0434 8.31348 62.4359 8.10132C62.8284 7.88915 63.3085 8.03822 63.5082 8.43426Z" fill="#404040"/>
<path d="M85.0426 14.7612H88.199V20.8302H85.0426V14.7612Z" fill="#404040"/>
<path d="M90.21 8.81155L86.0432 14.7724L87.8674 15.7585L90.21 8.81155Z" fill="#404040"/>
<path d="M89.5079 8.43196C89.3082 8.828 89.4606 9.319 89.8484 9.52863C90.2362 9.73826 90.7125 9.58714 90.9122 9.19109C91.1119 8.79505 90.9594 8.30405 90.5717 8.09442C90.1839 7.88479 89.7076 8.03591 89.5079 8.43196Z" fill="#404040"/>
<path fill-rule="evenodd" clip-rule="evenodd" d="M76.4754 29C82.2031 29 86.8463 24.5062 86.8463 18.9628C86.8463 13.4194 82.2031 8.92562 76.4754 8.92562C70.7477 8.92562 66.1045 13.4194 66.1045 18.9628C66.1045 24.5062 70.7477 29 76.4754 29ZM71.2899 18.9628C70.6673 18.9628 70.1626 18.4403 70.1626 17.7957V17.3289C70.1626 16.6843 70.6673 16.1617 71.2899 16.1617H81.6608C82.2834 16.1617 82.7881 16.6843 82.7881 17.3289V17.7957C82.7881 18.4403 82.2834 18.9628 81.6608 18.9628H71.2899Z" fill="#404040"/>
</svg>
