<svg width="45" height="45" viewBox="0 0 45 45" fill="none" xmlns="http://www.w3.org/2000/svg">
<g clip-path="url(#clip0)">
<path d="M5.74444 36.4373C-1.1398 27.9417 0.178687 15.4914 8.67393 8.60713C15.9247 2.74814 26.3242 2.74814 33.5746 8.60713L5.74444 36.4373Z" fill="#4D6299"/>
<path d="M22.0033 20.1053L19.5866 18.8605V15.931L20.3189 14.8324C20.7581 14.1733 20.978 13.2943 20.8314 12.4887L20.7581 11.5367C20.4652 9.70578 18.7809 8.38729 16.9499 8.68053C15.4852 8.9001 14.3133 10.072 14.0938 11.5367L13.9471 12.4887C13.8005 13.2943 14.0205 14.1733 14.46 14.8324L15.1923 15.931V18.8605L9.4796 21.7166C8.52766 22.2294 7.86859 23.2547 7.86859 24.3533V34.2403L22.0033 20.1053Z" fill="#EFCCBF"/>
<path d="M9.4796 21.7165C8.52766 22.2293 7.86859 23.2546 7.86859 24.3532V34.2402L22.0033 20.0322L19.5866 18.8604H15.1923L9.4796 21.7165Z" fill="#F4C167"/>
<path d="M11.5305 37.9022C20.0257 44.7864 32.476 43.4683 39.3606 34.9727C45.2196 27.7223 45.2196 17.3224 39.3606 10.072L11.5305 37.9022Z" fill="#4D6299"/>
<path d="M36.4312 32.7754V29.8459L37.6027 28.0883C37.8226 27.7951 37.8959 27.4289 37.8226 27.0627L37.3831 23.767C37.3098 23.0347 36.6507 22.5222 35.9184 22.5222H32.6227C31.8903 22.5222 31.3046 23.0347 31.1579 23.767L30.7184 27.0627C30.6451 27.4289 30.7184 27.7951 30.9384 28.0883L32.0369 29.8459V32.7754L25.5185 35.9978C25.0061 36.2174 24.7132 36.7302 24.7132 37.3159V42.2963C28.3751 42.1497 31.9636 40.9778 35.0394 38.9273C36.8703 37.6821 38.4084 36.2174 39.7269 34.4598L36.4312 32.7754Z" fill="#EFCCBF"/>
<path d="M36.4312 32.7754L34.234 34.9725L32.0369 32.7754L25.5185 35.9978C25.0061 36.2173 24.7132 36.7301 24.7132 37.3159V42.2963C28.3751 42.1496 31.9636 40.9778 35.0394 38.9273C36.8703 37.6821 38.4084 36.2173 39.7269 34.4597L36.4312 32.7754Z" fill="#D3756E"/>
<path d="M35.9276 19.0602L38.8793 16.1082L39.9149 17.1441L36.9632 20.0958L35.9276 19.0602Z" fill="#D6D7D8"/>
<path d="M17.6144 38.1054L19.7893 35.9304L20.8253 36.966L18.6504 39.1414L17.6144 38.1054Z" fill="#D6D7D8"/>
<path d="M21.2874 32.9678L25.6891 28.5657L26.7251 29.6017L22.323 34.0034L21.2874 32.9678Z" fill="#D6D7D8"/>
<path d="M35.1917 6.61342L37.3667 4.43848L38.4023 5.4741L36.2273 7.6494L35.1917 6.61342Z" fill="#D6D7D8"/>
<path d="M32.2693 3.67689L35.9462 0L36.9819 1.03562L33.305 4.71251L32.2693 3.67689Z" fill="#D6D7D8"/>
<path d="M4.44275 43.9533L8.8445 39.5515L9.88048 40.5871L5.47837 44.9892L4.44275 43.9533Z" fill="#D6D7D8"/>
<path d="M9.55829 43.9643L11.7332 41.7893L12.7692 42.8249L10.5943 44.9999L9.55829 43.9643Z" fill="#D6D7D8"/>
<path d="M24.9385 10.2753L27.1134 8.10034L28.1491 9.13596L25.9741 11.3109L24.9385 10.2753Z" fill="#D6D7D8"/>
<path d="M4.83325 18.7142L8.87275 14.675L9.90837 15.7107L5.86887 19.7502L4.83325 18.7142Z" fill="#D6D7D8"/>
<path d="M28.3751 37.1697H31.3046V38.6344H28.3751V37.1697Z" fill="#F78B7C"/>
<path d="M33.5017 39.8793C34.0142 39.5864 34.527 39.2935 34.9665 39.0007V34.2402L34.2341 34.9726L33.5017 34.2402V39.8793Z" fill="#F78B7C"/>
<path d="M37.3099 23.767C37.2366 23.0347 36.5775 22.5222 35.8451 22.5222H32.5494C31.8171 22.5222 31.2313 23.0347 31.0847 23.767L30.8651 25.4517H37.5298L37.3099 23.767Z" fill="#704D4D"/>
<path d="M20.7581 11.5367C20.4652 9.70578 18.7809 8.38729 16.95 8.68053C15.4852 8.9001 14.3134 10.072 14.0938 11.5367H20.7581Z" fill="#704D4D"/>
<path d="M18.1219 23.987V18.8604H16.6571V25.4517L18.1219 23.987Z" fill="#DDAD6F"/>
<path d="M12.9952 29.1137V24.7195H11.5305V30.5785L12.9952 29.1137Z" fill="#DDAD6F"/>
</g>
<defs>
<clipPath id="clip0">
<rect width="45" height="45" fill="white"/>
</clipPath>
</defs>
</svg>
