<svg width="45" height="45" viewBox="0 0 40 40" fill="none" xmlns="http://www.w3.org/2000/svg">
<path d="M20 40C31.0282 40 40 31.0278 40 20C40 8.97219 31.0282 0 20 0C8.9718 0 0 8.97219 0 20C0 31.0278 8.9718 40 20 40Z" fill="#FF9C28"/>
<path d="M0 20C0 8.97219 8.9718 0 20 0V40C8.9718 40 0 31.0278 0 20Z" fill="#4D6299"/>
<path d="M15.9179 30.8289C16.1656 30.8289 16.4161 30.7583 16.6378 30.6114L31.1335 20.9957C31.4978 20.7536 31.717 20.3459 31.717 19.9085C31.717 19.471 31.4978 19.0633 31.1335 18.8213L16.6377 9.2055C16.0376 8.808 15.2268 8.97113 14.8294 9.5716C14.431 10.1721 14.595 10.9815 15.1955 11.3799L28.0524 19.9085L15.1955 28.437C14.595 28.8353 14.431 29.6448 14.8294 30.2453C15.0804 30.6241 15.4953 30.8289 15.9179 30.8289Z" fill="white"/>
<path d="M15.9179 30.8291C15.4954 30.8291 15.0804 30.6243 14.8294 30.2456C14.431 29.6451 14.595 28.8357 15.1955 28.4373L19.9753 25.2666V28.3978L16.6378 30.6117C16.416 30.7586 16.1655 30.8291 15.9179 30.8291Z" fill="#FFE6B3"/>
<path d="M16.6378 9.20596L19.9753 11.4199V14.551L15.1955 11.3803C14.595 10.982 14.431 10.1725 14.8294 9.57205C15.2269 8.97158 16.0377 8.80853 16.6378 9.20596Z" fill="#FFE6B3"/>
</svg>
