<svg width="45" height="45" viewBox="0 0 37 37" fill="none" xmlns="http://www.w3.org/2000/svg">
<g clip-path="url(#clip0)">
<path d="M37 10.8448C37 16.8342 32.1445 21.6897 26.1552 21.6897C20.1659 21.6897 15.3104 16.8342 15.3104 10.8448C15.3104 4.8555 20.1659 0 26.1552 0C32.1445 0 37 4.8555 37 10.8448Z" fill="#D3756E"/>
<path d="M21.6897 10.8448C21.6897 16.8342 16.8342 21.6897 10.8448 21.6897C4.8555 21.6897 0 16.8342 0 10.8448C0 4.8555 4.8555 0 10.8448 0C16.8342 0 21.6897 4.8555 21.6897 10.8448Z" fill="#5DA364"/>
<path d="M23.7835 7.46189L24.6856 6.55981L32.3541 14.2281L31.4518 15.1305L23.7835 7.46189Z" fill="#E9E9E9"/>
<path d="M23.7835 14.2281L31.4518 6.55981L32.3538 7.46189L24.6856 15.1305L23.7835 14.2281Z" fill="#E9E9E9"/>
<path d="M5.74145 14.9278L3.38098 12.5676L4.27433 11.6742L5.74145 13.1417L12.312 6.5708L13.2054 7.46415L5.74145 14.9278Z" fill="#E9E9E9"/>
<path d="M27.2398 28.5156L21.6897 27.431L23.2207 24.4326C23.4758 23.9224 23.6035 23.2844 23.6035 22.7104V18.5C23.6035 17.0964 22.4553 15.9482 21.0518 15.9482H15.9483C14.5447 15.9482 13.3966 17.0964 13.3966 18.5V22.7104C13.3966 23.2844 13.5243 23.9224 13.7794 24.4326L15.3104 27.431L9.76025 28.5156C9.25003 28.643 8.86721 28.962 8.73981 29.4725L7.01727 37H29.9828L28.2603 29.536C28.1329 29.0258 27.75 28.643 27.2398 28.5156Z" fill="#EFCCBF"/>
<path d="M15.3104 27.4312L9.76025 28.5158C9.25003 28.6432 8.86721 28.9621 8.73981 29.4727L7.01727 37.0001H29.9828L28.2603 29.5362C28.1329 29.026 27.75 28.6432 27.2398 28.5793L21.6897 27.4312L18.5 29.9829L15.3104 27.4312Z" fill="#3A6289"/>
<path d="M24.2414 28.0691L18.5 34.4484L12.1207 28.0691L15.3104 27.4312L18.5 29.9829L21.6897 27.4312L24.2414 28.0691Z" fill="#4282B7"/>
<path d="M10.8448 33.1724H14.0345V34.4482H10.8448V33.1724Z" fill="#2B4A66"/>
<path d="M22.9655 33.1724H26.1552V34.4482H22.9655V33.1724Z" fill="#2B4A66"/>
<path d="M13.3966 21.6896C15.8845 18.8828 20.2226 18.6277 23.0294 21.1155L23.6035 21.6896V18.5C23.6035 17.0964 22.4554 15.9482 21.0518 15.9482H15.9483C14.5448 15.9482 13.3966 17.0964 13.3966 18.5V21.6896Z" fill="#704D4D"/>
<path d="M17.8621 29.4727V37.0001H19.138V29.4727L18.5001 29.9829L17.8621 29.4727Z" fill="#2B4A66"/>
</g>
<defs>
<clipPath id="clip0">
<rect width="37" height="37" fill="white"/>
</clipPath>
</defs>
</svg>
