<svg width="45" height="45" viewBox="0 0 40 40" fill="none" xmlns="http://www.w3.org/2000/svg">
<path d="M20 40C8.9718 40 0 31.0278 0 20C0 8.97219 8.9718 0 20 0C31.0282 0 40 8.97219 40 20C40 31.0278 31.0282 40 20 40Z" fill="#FF9C28"/>
<path d="M40 20C40 8.97219 31.0282 0 20 0V40C31.0282 40 40 31.0278 40 20Z" fill="#4D6299"/>
<path d="M24.0821 30.8289C23.8344 30.8289 23.5839 30.7583 23.3622 30.6114L8.86654 20.9957C8.50216 20.7536 8.28302 20.3459 8.28302 19.9085C8.28302 19.471 8.50216 19.0633 8.86654 18.8213L23.3623 9.2055C23.9624 8.808 24.7732 8.97113 25.1706 9.5716C25.569 10.1721 25.405 10.9815 24.8045 11.3799L11.9476 19.9085L24.8045 28.437C25.405 28.8353 25.569 29.6448 25.1706 30.2453C24.9196 30.6241 24.5047 30.8289 24.0821 30.8289Z" fill="white"/>
<path d="M24.0821 30.8291C24.5046 30.8291 24.9196 30.6243 25.1706 30.2456C25.569 29.6451 25.405 28.8357 24.8045 28.4373L20.0247 25.2666V28.3978L23.3622 30.6117C23.584 30.7586 23.8345 30.8291 24.0821 30.8291Z" fill="#FFE6B3"/>
<path d="M23.3622 9.20596L20.0247 11.4199V14.551L24.8045 11.3803C25.405 10.982 25.569 10.1725 25.1706 9.57205C24.7731 8.97158 23.9623 8.80853 23.3622 9.20596Z" fill="#FFE6B3"/>
</svg>
