<svg width="45" height="45" viewBox="0 0 50 50" fill="none" xmlns="http://www.w3.org/2000/svg">
<path d="M50 25.0005C50 31.6782 47.3995 37.956 42.6777 42.6777C37.956 47.3995 31.6782 50 25.0005 50C18.3228 50 12.044 47.3995 7.32227 42.6777C2.60049 37.956 0 31.6782 0 25.0005C0 18.3228 2.60049 12.044 7.32227 7.32227C12.044 2.60049 18.3228 0 25.0005 0C31.6782 0 37.956 2.60049 42.6777 7.32227C47.3995 12.044 50 18.3228 50 25.0005Z" fill="#F5F0EB"/>
<path d="M50 25.0005C50 31.6782 47.3995 37.956 42.6777 42.6777C37.956 47.3995 31.6782 50 25.0005 50V0C31.6782 0 37.956 2.60049 42.6777 7.32227C47.3995 12.044 50 18.3228 50 25.0005Z" fill="#DCD2CD"/>
<path d="M43.6264 25.0004C43.6264 35.2703 35.2704 43.6253 25.0005 43.6253C14.7296 43.6253 6.37463 35.2703 6.37463 25.0004C6.37463 14.7295 14.7296 6.37451 25.0005 6.37451C35.2704 6.37451 43.6264 14.7295 43.6264 25.0004Z" fill="#FF9C28"/>
<path d="M43.6264 25.0004C43.6264 35.2703 35.2704 43.6253 25.0005 43.6253V6.37451C35.2704 6.37451 43.6264 14.7295 43.6264 25.0004Z" fill="#4D6299"/>
<path d="M30.9291 22.8058L25.0005 28.7354L24.4587 29.2772C24.1683 29.5676 23.7878 29.7125 23.4064 29.7125H23.3839C23.0083 29.7125 22.6329 29.5697 22.3462 29.2832L19.155 26.091C18.5819 25.5188 18.5819 24.5897 19.155 24.0167C19.7282 23.4436 20.6573 23.4435 21.2293 24.0167L23.3711 26.1575L25.0004 24.5282L28.8263 20.7023C29.4073 20.1214 30.3491 20.1214 30.9291 20.7023C31.5101 21.2831 31.5101 22.2249 30.9291 22.8058Z" fill="white"/>
<path d="M30.9291 22.8059L25.0005 28.7355V24.5282L28.8264 20.7023C29.4073 20.1214 30.3491 20.1214 30.9291 20.7023C31.5101 21.2832 31.5101 22.225 30.9291 22.8059Z" fill="#F5F0EB"/>
</svg>
