<svg width="45" height="45" viewBox="0 0 39 39" fill="none" xmlns="http://www.w3.org/2000/svg">
<path d="M11.4311 19.5H19.5V0C8.73031 0 0 8.73031 0 19.5C0 30.2697 8.73031 39 19.5 39V19.5H11.4311Z" fill="#4D6299"/>
<path d="M19.5 0V39C30.2697 39 39 30.2697 39 19.5C39 8.73031 30.2694 0 19.5 0Z" fill="#8F96EB"/>
<path d="M19.5 20.1724H11.4311C11.0598 20.1724 10.7587 19.8713 10.7587 19.4999C10.7587 19.1286 11.0595 18.8275 11.4311 18.8275H18.8275V3.36191C18.8275 2.99057 19.1286 2.68945 19.5 2.68945C19.8713 2.68945 20.1724 2.99057 20.1724 3.36191V19.4999C20.1724 19.8713 19.8713 20.1724 19.5 20.1724Z" fill="#F1F2F2"/>
</svg>
