<svg width="45" height="45" viewBox="0 0 44 44" fill="none" xmlns="http://www.w3.org/2000/svg">
<g clip-path="url(#clip0)">
<path d="M41.0259 35.7904C41.0259 44.4192 32.5385 43.9241 22 43.9241C11.4615 43.9241 2.97412 44.3485 2.97412 35.7904C2.97412 27.1615 11.4615 12.8037 22 12.8037C32.5385 12.8744 41.0259 27.2323 41.0259 35.7904Z" fill="#FF9C28"/>
<path d="M22 12.874C32.5385 12.874 41.0259 27.2318 41.0259 35.8607C41.0259 44.4895 32.5385 43.9944 22 43.9944" fill="#DD981D"/>
<path d="M12.7346 3.96259C12.7346 -0.210377 16.9076 0.00180797 22 0.00180797C27.0924 0.00180797 31.2654 -0.210377 31.2654 3.96259C31.2654 8.13555 27.0924 15.1376 22 15.1376C16.9076 15.1376 12.7346 8.13555 12.7346 3.96259Z" fill="#F2B233"/>
<path d="M22 0.00180797C27.0924 0.00180797 31.2654 -0.210377 31.2654 3.96259C31.2654 8.13555 27.0924 15.1376 22 15.1376" fill="#DD981D"/>
<path d="M30.1338 13.6521C30.1338 14.3594 29.5679 14.9252 28.8607 14.9252H15.1394C14.4321 14.9252 13.8663 14.3594 13.8663 13.6521V13.2985C13.8663 12.5912 14.4321 12.0254 15.1394 12.0254H28.9314C29.6387 12.0254 30.2045 12.5912 30.2045 13.2985V13.6521H30.1338Z" fill="#4D6299"/>
<path d="M14.9272 12.0962H28.9314C29.6386 12.0962 30.2045 12.662 30.2045 13.3693V13.7229C30.2045 14.4302 29.4972 14.996 28.7899 14.996" fill="#4D6299"/>
<path d="M22 38.4777C26.6875 38.4777 30.4874 34.6778 30.4874 29.9903C30.4874 25.3029 26.6875 21.5029 22 21.5029C17.3126 21.5029 13.5126 25.3029 13.5126 29.9903C13.5126 34.6778 17.3126 38.4777 22 38.4777Z" fill="#8F96EB"/>
<path d="M15.9881 23.9785C19.3123 20.6543 24.6877 20.6543 28.0119 23.9785C31.3361 27.3027 31.3361 32.6781 28.0119 36.0023" fill="#4D6299"/>
<path d="M21.2927 36.8514V35.0832C19.8782 35.0125 19.1002 34.7296 18.4636 34.376L18.888 32.4663C19.5953 32.8199 20.5147 33.1736 21.5757 33.1736C22.4951 33.1736 23.1317 32.8199 23.1317 32.1834C23.1317 31.5468 22.6366 31.1932 21.3635 30.7688C19.5953 30.203 18.4636 29.3543 18.4636 27.7982C18.4636 26.3837 19.1002 25.252 21.222 24.8984V23.4131H22.6366V24.8276C24.0511 24.8984 24.5462 25.1106 25.0413 25.3935L24.617 27.2324C24.1926 27.0202 23.4853 26.6666 22.2829 26.6666C21.222 26.6666 20.8684 27.0909 20.8684 27.586C20.8684 28.1519 21.4342 28.4348 22.8488 29.0006C24.7584 29.7079 25.5364 30.5566 25.5364 32.0419C25.5364 33.5272 24.7584 34.7296 22.6366 35.0832V36.8514H21.2927Z" fill="#FFF6E1"/>
<path d="M22 23.4131V26.6666C22 26.6666 22.2122 26.6666 22.3536 26.6666C23.556 26.6666 24.2633 27.0202 24.6877 27.2324L25.112 25.3935C24.5462 25.1106 24.1218 24.8277 22.7073 24.8277V23.4131H22Z" fill="#FFEEBD"/>
<path d="M22.9195 28.9298C22.5658 28.7884 22.2122 28.6469 22 28.5762V30.9809C22.7073 31.3346 23.1317 31.6882 23.1317 32.1833C23.1317 32.7491 22.7073 33.032 22 33.1735V36.8514H22.7073V35.0124C24.8291 34.6588 25.6071 33.4564 25.6071 31.9711C25.6071 30.4858 24.8291 29.6371 22.9195 28.9298Z" fill="#FFEEBD"/>
</g>
<defs>
<clipPath id="clip0">
<rect width="44" height="44" fill="white"/>
</clipPath>
</defs>
</svg>
