<svg width="43" height="43" viewBox="0 0 43 43" fill="none" xmlns="http://www.w3.org/2000/svg">
<g clip-path="url(#clip0)">
<path d="M42.9999 21.5C42.9999 33.3742 33.3742 42.9999 21.5 42.9999C9.62603 42.9999 0 33.3742 0 21.5C0 9.62571 9.62603 0 21.5 0C33.3742 0 42.9999 9.62571 42.9999 21.5Z" fill="#8F96EB"/>
<path d="M43 21.4998C43 20.7928 42.9649 20.094 42.8983 19.4044L30.8849 7.39106L29.8893 10.5372L25.2593 5.90723L12.1154 35.6085L19.4047 42.8981C20.0943 42.9647 20.793 42.9998 21.5 42.9998C33.3743 42.9998 43 33.3741 43 21.4998Z" fill="#4D6299"/>
<path d="M12.1154 7.39111H30.8849V35.6085H12.1154V7.39111Z" fill="white"/>
<path d="M21.4659 7.39111H30.8849V35.6085H21.4659V7.39111Z" fill="#DCE1EB"/>
<path d="M27.4557 17.5118C27.4557 20.801 24.7892 23.4675 21.5 23.4675C18.2108 23.4675 15.5443 20.801 15.5443 17.5118C15.5443 14.2227 18.2108 11.5562 21.5 11.5562C24.7892 11.5562 27.4557 14.2227 27.4557 17.5118Z" fill="#555A66"/>
<path d="M21.5 11.5562C21.4885 11.5562 21.4774 11.5568 21.4659 11.5568V23.4668C21.4774 23.4668 21.4885 23.4675 21.5 23.4675C24.7892 23.4675 27.4557 20.801 27.4557 17.5118C27.4557 14.2227 24.7892 11.5562 21.5 11.5562Z" fill="#333940"/>
<path d="M24.0871 16.2663C24.0871 17.695 22.9287 18.8534 21.5 18.8534C20.0713 18.8534 18.9129 17.695 18.9129 16.2663C18.9129 14.8376 20.0713 13.6792 21.5 13.6792C22.9287 13.6792 24.0871 14.8376 24.0871 16.2663Z" fill="#FFBEAA"/>
<path d="M21.5 13.6792C21.4885 13.6792 21.4774 13.6802 21.4659 13.6802V18.8524C21.4774 18.8528 21.4885 18.8534 21.5 18.8534C22.9287 18.8534 24.0871 17.695 24.0871 16.2663C24.0871 14.8376 22.9287 13.6792 21.5 13.6792Z" fill="#E09380"/>
<path d="M17.3864 21.8188C18.4556 22.8404 19.9046 23.4676 21.5 23.4676C23.0957 23.4676 24.5444 22.8404 25.6139 21.8188C24.9588 20.1886 23.3644 19.0371 21.5 19.0371C19.6356 19.0368 18.0416 20.1886 17.3864 21.8188Z" fill="#FFCE00"/>
<path d="M25.6139 21.8191C24.9588 20.1889 23.3644 19.0371 21.5 19.0371C21.4885 19.0371 21.4774 19.0378 21.4659 19.0378V23.4673C21.4774 23.4673 21.4885 23.4679 21.5 23.4679C23.0957 23.4679 24.5444 22.8407 25.6139 21.8191Z" fill="#FFB600"/>
<path d="M12.1154 25.9351H30.8849V35.6087H12.1154V25.9351Z" fill="#FFCE00"/>
<path d="M21.4659 25.9351H30.8849V35.6087H21.4659V25.9351Z" fill="#FF9C28"/>
<path d="M17.7407 5.90723H25.2593V8.93066H17.7407V5.90723Z" fill="#FFCE00"/>
<path d="M21.4659 5.90723H25.2593V8.93066H21.4659V5.90723Z" fill="#FF9C28"/>
</g>
<defs>
<clipPath id="clip0">
<rect width="43" height="43" fill="white"/>
</clipPath>
</defs>
</svg>
